<svg width="1024" height="1025" viewBox="0 0 1024 1025" fill="none" xmlns="http://www.w3.org/2000/svg">
    <path d="M571.149 914.123c-228.754 56.555-425.657 56.042-439.796-1.147-14.139-57.189 159.841-149.396 388.595-205.951 228.755-56.555 425.658-56.042 439.797 1.147 14.141 57.188-159.841 149.396-388.596 205.951z" fill="#A06C33"/>
    <path d="m503.213 502.078 1.485 3.108 3.95 8.782c1.976 4.53 3.89 9.079 5.742 13.646a670.887 670.887 0 0 1 6.927 17.701c2.486 6.484 4.982 13.511 7.626 20.942 2.56 7.431 5.25 15.268 7.834 23.374 2.694 8.106 5.158 16.484 7.774 24.996 2.449 8.513 5.051 17.159 7.339 25.807l3.51 12.954 3.269 12.853c2.237 8.513 4.103 16.89 6.047 24.996 4.05 16.215 6.162 31.347 6.624 44.319.231 6.484.106 12.431-.298 17.7a126.382 126.382 0 0 1-1.752 13.647c-.746 3.783-1.506 6.755-2.122 8.781a40.863 40.863 0 0 1-1.069 3.108c-23.285 56.769-97.068 86.969-164.803 67.453-39.07-11.256-67.806-37.127-80.479-67.453 0 0-.443-1.081-1.069-3.108-.616-2.026-1.376-4.998-2.122-8.781a126.132 126.132 0 0 1-1.752-13.647 158.626 158.626 0 0 1-.298-17.7c.462-12.972 2.577-28.104 6.624-44.319 1.944-8.106 3.812-16.483 6.047-24.996l3.269-12.853 3.51-12.954c2.285-8.648 4.89-17.294 7.34-25.807 2.615-8.512 5.077-16.89 7.773-24.996 2.584-8.106 5.276-15.943 7.834-23.374 2.644-7.431 5.142-14.458 7.626-20.942a670.887 670.887 0 0 1 6.927-17.701 559.934 559.934 0 0 1 5.742-13.646l3.95-8.782 1.487-3.108c13.225-27.659 50.698-41.096 83.698-30.014 16.926 5.686 29.47 16.882 35.81 30.014z" fill="#FFD469"/>
    <path d="M954.965 729.499c.55-2.838.544-5.572-.102-8.182-11.201-45.309-202.176-37.069-426.554 18.404S131.116 876.894 142.317 922.204c.791 3.198 2.51 6.122 5.043 8.79-16.588-11.948-24.221-32.033-15.786-55.661 35.632-99.802 70.616-264.008 22.118-460.172-29.248-118.3 45.469-241.054 170.845-292.892l-6.04-24.43c-5.692-23.021 11.262-47.014 37.869-53.592 26.607-6.578 52.788 6.75 58.48 29.77l6.037 24.423a360.142 360.142 0 0 1 41.164-1.65c121.245 2.118 220.181 75.45 245.282 178.512 48.154 197.715 156.253 327.584 234.656 399.632 17.792 16.35 20.891 36.734 12.98 54.565z" fill="#FFB636"/>
    <path d="m524.865 162.312 2.48.883 2.979 1.06.941.336 1.865.752 4.067 1.71c6.285 2.647 11.119 5.342 17.089 8.891a159.206 159.206 0 0 1 17.87 12.822l4.512 3.825c1.546 1.303 2.907 2.676 4.4 4.058 1.448 1.389 2.993 2.795 4.412 4.251l4.261 4.452a98.08 98.08 0 0 1 4.195 4.62l4.138 4.772c2.584 3.243 5.361 6.557 7.841 9.964 5.152 6.798 9.85 13.902 14.407 21.15 4.423 7.257 8.715 14.659 12.549 22.102 15.59 29.758 26.479 59.976 33.5 83.241a511.616 511.616 0 0 1 4.529 16.036 465.906 465.906 0 0 1 3.144 12.676 337.658 337.658 0 0 1 1.837 8.446l.62 3.044c5.275 25.843-11.398 51.068-37.241 56.345-25.341 5.173-50.091-10.761-56.015-35.749l-.294-1.248-.495-2.103c-.299-1.349-.827-3.417-1.498-6.057a365.392 365.392 0 0 0-2.698-9.698 415.478 415.478 0 0 0-3.981-12.725 430.494 430.494 0 0 0-11.857-31.468c-2.415-5.62-4.965-11.391-7.744-17.074-2.76-5.696-5.674-11.369-8.748-16.81-3.023-5.509-6.268-10.686-9.477-15.665-3.272-4.863-6.539-9.525-9.821-13.576-1.609-2.116-3.274-3.9-4.835-5.805l-2.375-2.559a34.828 34.828 0 0 0-2.311-2.395l-2.239-2.218c-.732-.719-1.463-1.292-2.166-1.936-1.407-1.338-2.761-2.34-4.03-3.349a56.831 56.831 0 0 0-6.617-4.448c-1.741-.934-3.784-1.93-3.446-1.688l-.097-.112-.037-.08-.892-.292-3.008-.977-2.504-.813-.045-.013c-26.793-8.7-41.459-37.473-32.759-64.264 8.7-26.791 37.473-41.46 64.264-32.759.37.114.962.318 1.33.445z" fill="#FFD469"/>
    <path fill-rule="evenodd" clip-rule="evenodd" d="M607.575 279.298c23.006 10.58 33.08 37.807 22.5 60.814l-137.054 298.03a45.85 45.85 0 0 1-76.263 10.921L301.633 516.605c-16.612-19.112-14.585-48.072 4.528-64.684 19.112-16.612 48.073-14.584 64.684 4.528l68.535 78.853 107.381-233.504c10.58-23.006 37.807-33.08 60.814-22.5z" fill="#59B65D"/>
</svg>
